<?xml version="1.0" standalone="no"?>
<!DOCTYPE svg PUBLIC "-//W3C//DTD SVG 20010904//EN"
 "http://www.w3.org/TR/2001/REC-SVG-20010904/DTD/svg10.dtd">
<svg version="1.0" xmlns="http://www.w3.org/2000/svg"
 width="980.000000pt" height="980.000000pt" viewBox="0 0 980.000000 980.000000"
 preserveAspectRatio="xMidYMid meet">
<metadata>
Created by potrace 1.14, written by Peter Selinger 2001-2017
</metadata>
<g transform="translate(0.000000,980.000000) scale(0.100000,-0.100000)"
fill="#000000" stroke="none">
<path d="M4473 9789 c-112 -17 -289 -66 -399 -113 -496 -209 -852 -647 -965
-1186 -17 -80 -22 -142 -23 -260 l-1 -155 34 -63 c38 -70 89 -119 160 -154 39
-19 62 -23 146 -23 90 0 105 3 153 28 70 37 128 97 159 163 19 42 26 81 34
177 11 154 36 253 93 371 53 110 95 169 183 259 119 121 270 207 439 253 61
17 108 19 424 19 l355 0 85 -29 c160 -53 272 -119 379 -220 116 -111 198 -236
245 -374 33 -96 45 -157 55 -290 8 -96 14 -123 40 -177 35 -70 86 -120 160
-157 39 -19 62 -23 146 -23 90 0 105 3 153 28 112 59 178 159 189 284 6 77 -9
244 -32 360 -115 561 -532 1029 -1082 1213 -210 70 -301 80 -711 79 -197 -1
-385 -5 -419 -10z"/>
<path d="M1650 7555 c-543 -75 -1015 -421 -1249 -917 -85 -180 -128 -333 -150
-540 -14 -129 -15 -4493 -1 -4628 51 -492 311 -927 715 -1196 182 -121 363
-197 585 -246 l105 -23 3245 0 3245 0 103 22 c584 127 1039 529 1222 1082 47
140 66 230 80 376 14 152 14 4448 0 4600 -14 146 -33 236 -80 376 -195 587
-711 1012 -1330 1095 -150 20 -6344 19 -6490 -1z m6505 -703 c386 -109 661
-425 705 -810 14 -119 13 -1003 -1 -1117 -39 -321 -232 -592 -524 -735 -55
-27 -140 -60 -190 -72 l-90 -23 -3155 0 -3155 0 -90 23 c-382 96 -666 418
-714 807 -14 116 -15 1011 -1 1124 52 411 365 742 773 816 58 11 669 13 3217
12 l3145 -2 80 -23z m-6970 -3298 c119 -55 254 -99 389 -127 l111 -22 3205 0
c3056 0 3210 1 3308 18 203 36 418 118 590 225 l83 51 -4 -1102 c-3 -1099 -3
-1102 -25 -1185 -90 -338 -326 -586 -657 -689 l-90 -28 -3150 -3 c-2317 -2
-3169 0 -3223 8 -96 15 -197 50 -289 100 -234 126 -399 335 -471 597 l-27 98
-3 1102 -3 1102 83 -51 c46 -28 124 -70 173 -94z"/>
<path d="M2343 3060 c-52 -12 -122 -59 -154 -103 -53 -73 -61 -124 -57 -345 5
-216 10 -239 69 -307 53 -60 111 -87 195 -93 68 -4 79 -2 140 28 70 34 110 79
139 154 14 36 16 78 13 262 -3 202 -5 222 -25 259 -61 115 -194 175 -320 145z"/>
<path d="M7292 3052 c-60 -22 -123 -77 -155 -137 -20 -37 -22 -57 -25 -264
l-3 -224 31 -64 c49 -98 131 -151 241 -152 111 -2 205 54 253 151 26 51 26 55
26 278 0 223 0 227 -26 278 -61 122 -211 181 -342 134z"/>
</g>
</svg>
