<?xml version="1.0" standalone="no"?>
<!DOCTYPE svg PUBLIC "-//W3C//DTD SVG 20010904//EN"
 "http://www.w3.org/TR/2001/REC-SVG-20010904/DTD/svg10.dtd">
<svg version="1.0" xmlns="http://www.w3.org/2000/svg"
 width="1920.000000pt" height="1920.000000pt" viewBox="0 0 1920.000000 1920.000000"
 preserveAspectRatio="xMidYMid meet">
<metadata>
Created by potrace 1.14, written by Peter Selinger 2001-2017
</metadata>
<g transform="translate(0.000000,1920.000000) scale(0.100000,-0.100000)"
fill="#000000" stroke="none">
<path d="M11915 19154 c-115 -24 -226 -46 -245 -49 -19 -3 -41 -8 -49 -11 -8
-2 -30 -7 -50 -10 -20 -3 -52 -9 -71 -14 -19 -5 -51 -12 -70 -15 -19 -3 -109
-21 -200 -40 -91 -19 -176 -37 -190 -39 -14 -3 -61 -12 -104 -21 -44 -8 -93
-18 -109 -21 -17 -2 -33 -6 -36 -8 -3 -2 -22 -7 -41 -10 -19 -3 -69 -12 -110
-21 -41 -9 -86 -18 -100 -21 -14 -2 -45 -9 -70 -14 -25 -5 -56 -12 -70 -14
-14 -3 -92 -19 -175 -36 -82 -17 -161 -33 -175 -36 -19 -3 -110 -22 -140 -29
-3 0 -27 -5 -55 -10 -27 -4 -54 -9 -60 -10 -5 -2 -44 -10 -85 -19 -77 -16
-101 -21 -180 -36 -25 -5 -56 -11 -70 -14 -64 -14 -318 -66 -345 -70 -16 -3
-129 -26 -250 -51 -121 -25 -233 -48 -250 -51 -16 -3 -46 -9 -65 -14 -19 -5
-48 -11 -65 -14 -31 -5 -231 -45 -346 -70 -36 -8 -79 -16 -95 -19 -22 -4 -346
-69 -559 -113 -11 -2 -33 -7 -50 -10 -16 -3 -70 -14 -120 -24 -49 -11 -101
-22 -115 -24 -14 -3 -36 -7 -50 -10 -21 -5 -235 -48 -295 -60 -11 -2 -135 -27
-275 -56 -140 -29 -266 -54 -280 -56 -23 -4 -69 -14 -95 -20 -24 -6 -136 -29
-187 -38 -13 -2 -59 -12 -103 -21 -44 -9 -90 -19 -102 -21 -13 -2 -33 -6 -45
-9 -13 -3 -45 -10 -73 -16 -27 -5 -59 -12 -70 -14 -21 -3 -67 -12 -100 -19
-107 -24 -176 -38 -205 -42 -227 -36 -404 -127 -573 -297 -108 -108 -119 -121
-202 -247 -58 -87 -175 -306 -175 -327 0 -4 -6 -20 -14 -34 -23 -44 -80 -217
-102 -309 -2 -8 -10 -44 -19 -79 -9 -35 -18 -78 -20 -95 -2 -17 -7 -44 -10
-61 -22 -124 -29 -219 -29 -400 0 -142 7 -281 19 -355 12 -70 18 -100 31 -155
8 -33 17 -70 19 -82 12 -53 70 -205 108 -283 100 -205 239 -361 397 -447 52
-28 131 -58 176 -67 18 -4 357 -100 519 -146 39 -12 88 -26 110 -32 22 -6 54
-15 70 -19 17 -5 135 -38 263 -74 402 -112 694 -195 767 -215 39 -12 86 -25
105 -30 19 -5 73 -21 120 -35 47 -13 103 -28 125 -31 46 -8 178 -8 215 -1 62
13 137 29 160 33 14 3 77 16 140 29 63 13 126 26 140 28 25 5 367 75 405 83
11 2 36 7 55 10 19 3 60 11 90 19 30 7 73 16 95 20 59 10 64 11 245 49 69 14
136 27 150 30 14 2 45 9 70 15 25 5 59 12 75 15 17 3 98 19 180 36 83 17 164
33 180 36 17 3 58 11 93 19 34 8 77 17 95 20 17 3 40 8 50 11 24 8 19 -9 -38
-131 -44 -93 -52 -111 -128 -280 -25 -55 -57 -126 -71 -157 -14 -32 -38 -84
-52 -115 -94 -209 -120 -266 -151 -333 -19 -41 -52 -113 -73 -160 -21 -47 -49
-110 -63 -140 -73 -161 -227 -502 -247 -545 -35 -79 -169 -375 -195 -430 -12
-27 -32 -71 -44 -97 -20 -47 -36 -80 -91 -203 -50 -109 -72 -159 -100 -220
-16 -33 -38 -82 -51 -110 -69 -155 -120 -267 -144 -320 -15 -33 -36 -78 -46
-100 -10 -22 -46 -101 -79 -175 -34 -74 -89 -196 -122 -270 -33 -74 -75 -166
-93 -205 -36 -78 -53 -116 -120 -266 -26 -57 -60 -133 -77 -169 -17 -36 -42
-90 -55 -120 -26 -58 -95 -209 -136 -300 -14 -30 -45 -100 -70 -155 -25 -55
-63 -139 -86 -188 -22 -48 -41 -89 -41 -92 0 -3 -22 -53 -50 -111 -27 -58 -50
-108 -50 -110 0 -2 -20 -47 -45 -100 -25 -53 -45 -98 -45 -100 0 -2 -20 -45
-44 -96 -24 -51 -83 -181 -131 -288 -48 -107 -100 -222 -115 -255 -15 -33 -38
-82 -50 -110 -12 -27 -34 -75 -47 -105 -36 -79 -127 -277 -150 -330 -127 -281
-462 -1020 -485 -1070 -17 -36 -48 -105 -70 -155 -22 -49 -44 -94 -49 -100 -5
-5 -9 -14 -9 -21 0 -7 -20 -54 -44 -105 -24 -52 -131 -285 -236 -519 -106
-234 -206 -454 -222 -490 -17 -36 -48 -105 -70 -155 -22 -49 -50 -112 -63
-140 -61 -131 -102 -220 -155 -340 -32 -71 -78 -174 -104 -228 -25 -54 -46
-100 -46 -102 0 -3 -22 -53 -50 -111 -27 -58 -50 -108 -50 -110 0 -2 -15 -36
-34 -76 -18 -40 -44 -95 -56 -123 -178 -392 -277 -612 -302 -665 -16 -36 -42
-96 -57 -135 -16 -38 -32 -79 -36 -90 -4 -11 -9 -24 -11 -30 -1 -5 -18 -65
-38 -132 -19 -67 -42 -164 -51 -215 -9 -51 -18 -104 -20 -118 -20 -115 -28
-494 -12 -615 4 -33 10 -80 13 -105 12 -100 68 -306 111 -410 83 -201 199
-365 339 -479 79 -65 202 -114 464 -185 30 -8 80 -22 110 -31 30 -9 62 -18 70
-20 8 -2 49 -14 90 -25 41 -12 82 -23 90 -25 8 -2 128 -36 265 -75 138 -39
257 -72 265 -74 8 -2 74 -21 145 -41 72 -20 153 -43 180 -50 28 -8 131 -37
230 -65 155 -44 279 -79 335 -95 147 -41 261 -43 423 -9 59 13 120 25 135 28
24 4 56 10 151 30 14 3 158 33 320 66 163 33 328 66 366 74 39 8 84 17 100 20
17 3 73 14 125 25 52 11 110 23 128 26 18 3 65 12 105 21 39 9 86 18 102 20
17 2 37 7 45 10 8 3 29 8 45 11 17 2 62 11 100 19 136 28 270 56 290 59 11 1
88 17 170 34 163 34 185 38 230 47 17 3 50 10 75 15 25 6 56 13 70 15 26 5 51
10 85 17 11 2 36 7 55 11 19 3 44 8 55 10 11 3 108 23 215 44 107 22 242 50
300 62 58 12 116 24 130 26 14 2 54 11 90 19 36 8 79 16 95 19 17 3 75 15 130
26 55 12 111 23 125 26 14 2 36 7 50 10 14 3 36 8 50 10 14 3 81 16 150 30 69
14 135 28 146 30 12 2 66 13 120 25 99 20 124 25 167 33 12 2 33 7 47 10 14 3
36 8 50 10 14 3 81 16 150 31 69 14 134 27 145 29 11 2 65 13 120 25 55 11
111 22 125 25 14 2 70 14 125 26 55 12 111 23 125 25 14 2 90 17 170 34 80 17
156 32 170 35 14 2 79 16 145 30 66 14 140 28 165 31 24 4 47 8 51 10 3 2 21
7 40 10 19 3 63 12 99 20 36 8 79 17 95 20 17 3 40 8 53 10 12 3 32 7 45 9 12
3 90 19 172 36 83 17 164 33 180 36 140 25 340 140 470 270 81 82 279 344 259
344 -4 0 0 8 9 18 14 15 84 157 121 247 37 88 92 252 101 302 3 18 9 43 14 56
6 14 13 44 16 68 4 24 8 46 10 49 2 3 7 33 10 65 4 33 9 63 11 66 10 17 19
210 18 384 -2 178 -12 290 -39 430 -11 61 -67 250 -76 260 -5 5 -9 15 -9 23 0
15 -75 173 -107 227 -65 108 -163 215 -283 308 -46 36 -167 82 -345 131 -110
31 -222 63 -250 71 -27 8 -59 17 -70 20 -11 2 -157 43 -325 91 -168 47 -320
90 -337 95 -18 5 -48 13 -65 19 -18 5 -58 16 -88 24 -30 8 -120 33 -200 56
-80 23 -152 43 -160 45 -8 2 -49 13 -90 25 -470 135 -458 133 -765 71 -110
-22 -213 -42 -230 -45 -16 -3 -73 -15 -125 -26 -52 -11 -140 -29 -195 -40 -55
-10 -107 -21 -115 -24 -8 -3 -28 -7 -45 -10 -16 -2 -55 -10 -85 -16 -30 -6
-66 -13 -80 -16 -14 -2 -36 -7 -50 -10 -14 -3 -38 -8 -55 -11 -16 -2 -43 -8
-60 -13 -16 -5 -46 -11 -65 -14 -19 -3 -244 -48 -500 -100 -256 -52 -466 -93
-468 -92 -3 3 68 162 139 314 21 46 39 85 39 87 0 2 18 43 41 92 22 48 81 177
130 286 49 109 93 205 98 215 9 16 361 794 401 887 10 22 36 80 59 128 22 49
41 90 41 92 0 1 17 41 39 87 21 45 80 175 131 288 51 113 107 237 125 275 18
39 51 111 73 160 22 50 54 122 72 160 17 39 39 86 47 105 9 19 30 64 47 100
17 36 31 67 31 70 1 6 6 15 140 310 59 129 117 255 128 280 11 25 21 47 22 50
4 13 27 63 63 140 22 47 56 123 77 170 21 47 55 123 76 168 22 46 39 85 39 87
0 3 31 70 105 230 24 52 57 125 95 210 12 28 38 82 56 122 19 39 34 73 34 76
0 6 49 113 110 242 21 44 66 143 100 220 66 149 110 245 140 310 10 22 32 69
48 105 33 74 64 142 97 215 13 28 109 241 215 475 106 234 210 463 231 508 22
46 39 86 39 87 0 2 19 43 41 92 23 48 49 106 59 128 21 49 54 121 90 200 16
33 39 85 53 115 46 104 70 156 167 370 54 118 108 238 120 265 12 28 36 79 52
115 17 36 47 103 68 150 21 47 56 125 79 173 23 49 41 90 41 92 0 1 18 43 41
92 23 48 49 106 59 128 10 22 96 211 190 420 95 209 181 400 193 425 11 25 33
74 50 110 44 97 70 154 72 160 1 3 11 25 22 50 29 64 76 166 103 225 34 77 68
150 94 208 23 49 155 341 198 437 11 25 36 77 54 117 19 39 34 74 34 78 0 4 6
21 14 38 37 82 106 309 122 405 3 15 7 34 9 42 3 8 7 33 10 55 3 22 8 51 10
65 29 164 28 606 -1 743 -8 38 -24 121 -29 150 -10 52 -82 262 -112 322 -69
139 -139 242 -228 331 -108 109 -194 156 -376 209 -68 19 -140 40 -159 45 -19
6 -91 26 -160 46 -69 19 -156 44 -195 55 -38 11 -77 21 -86 23 -17 4 -117 33
-229 65 -36 11 -157 45 -270 76 -113 31 -241 67 -285 80 -44 13 -213 61 -375
106 -379 106 -399 107 -705 43z"/>
</g>
</svg>
